# xmcd
#
# Track frame offsets:
#	150
#	14217
#	30914
#	48361
#	66865
#	85618
#	103046
#	119197
#	135129
#	149919
#	166432
#	186752
#	206560
#	222919
#	239279
#	255911
#	273823
#	287120
#	298912
#	311705
#
# Disc length: 4355 seconds
#
# Revision: 0
# Processed by: cddbd v1.5.1PL2 Copyright (c) Steve Scherf et al.
# Submitted via: audiograbber 1.83.01
#
DISCID=33110114
DTITLE=Various Artist - CDX Volume 403 August 2006
DYEAR=2006
DGENRE=Country
TTITLE0=Toby Keith - Crash Here Tonight
TTITLE1=Lee Ann Womack - Finding My Way Back Home
TTITLE2=Randy Rogers Band - Kiss Me In The Dark
TTITLE3=Carolyn Dawn Johnson - Love and Negtiation
TTITLE4=Rascal Flats - My Wish
TTITLE5=Brad Paisley - She's Everything
TTITLE6=Trent Willmon - So Am I
TTITLE7=Eric Church - Two Pink Lines
TTITLE8=Billy Ray Cyrus - Wanna Be Your Joe
TTITLE9=Sugarland - Want To
TTITLE10=Sara Evans - You'll Always Be There
TTITLE11=Brian McComas - All Comes Floodin' Down
TTITLE12=Annie Smith - Eighty Acres Of Stars
TTITLE13=Heartland  - I Loved Her First
TTITLE14=Eli Young Band - So Close Now
TTITLE15=Michael Johnathon - Blue Highways
TTITLE16=Johnny Apollo - Big Girls Play Games Like Little Ones
TTITLE17=Connie Kis Anderson - Kiss My Cheek
TTITLE18=Rebecca Frederick - Lovin' In The Mud
TTITLE19=Bailey - Space
EXTD=
EXTT0=
EXTT1=
EXTT2=
EXTT3=
EXTT4=
EXTT5=Single Edit
EXTT6=Album Version
EXTT7=
EXTT8=
EXTT9=
EXTT10=
EXTT11=
EXTT12=
EXTT13=
EXTT14=
EXTT15=
EXTT16=
EXTT17=
EXTT18=
EXTT19=
PLAYORDER=
